<svg xmlns="http://www.w3.org/2000/svg" viewBox="41.844 891 118.492 146.891">
  <defs>
    <style>
      .cls-1 {
        fill: #fff;
      }
    </style>
  </defs>
  <path id="Union_2" data-name="Union 2" class="cls-1" d="M72.74,146.736a2.507,2.507,0,0,1-.62-.41,4.159,4.159,0,0,1-.53-.575q-.244-.32-.475-.65c-.153-.213-.305-.422-.454-.626a3.24,3.24,0,0,0-.465-.515.847.847,0,0,0-.445-.2,3.18,3.18,0,0,0-.475-.04h-.18a1.275,1.275,0,0,0-.17.01v1.859a1.418,1.418,0,0,0,.015.17,2.517,2.517,0,0,0,.045.256c.02.09.04.171.059.245a.255.255,0,0,0,.06.13.559.559,0,0,0,.135.031c.057.006.1.013.135.02.073.006.148.016.225.03a.415.415,0,0,1,.205.1q.059.05.03.1a.118.118,0,0,1-.11.05H68.5q-.61,0-1.219-.03c-.067-.007-.1-.035-.105-.086s.028-.082.1-.094a1.746,1.746,0,0,0,.339-.09.363.363,0,0,0,.175-.14.529.529,0,0,0,.065-.245c.006-.1.01-.235.01-.4V140.1a.757.757,0,0,0-.04-.27.3.3,0,0,0-.23-.2c-.047-.011-.094-.019-.14-.025a1.109,1.109,0,0,1-.24-.04.184.184,0,0,1-.131-.13.069.069,0,0,1,0-.086.128.128,0,0,1,.1-.034h.84c.113.006.22.008.319,0s.2,0,.311,0c.06,0,.118,0,.175-.005s.115-.005.175-.005h.53a6.079,6.079,0,0,1,.824.056,2.5,2.5,0,0,1,.751.22,1.724,1.724,0,0,1,.595.47,1.985,1.985,0,0,1,.37.805.429.429,0,0,1,.025.13c0,.053,0,.1,0,.15a1.966,1.966,0,0,1-.1.615,3.429,3.429,0,0,1-.26.595,3.739,3.739,0,0,1-.365.545,4.731,4.731,0,0,1-.426.464,4.254,4.254,0,0,1,.336.41c.116.16.235.32.355.48q.3.4.626.825a6.23,6.23,0,0,0,.679.76,3.286,3.286,0,0,0,.725.53,1.173,1.173,0,0,0,.75.135l.06.17a2.364,2.364,0,0,1-.481.17,2.149,2.149,0,0,1-.509.06A1.789,1.789,0,0,1,72.74,146.736Zm-3.805-6.955v3.289a5.521,5.521,0,0,0,.83.06c.113,0,.244-.006.391-.02a.665.665,0,0,0,.36-.131,1,1,0,0,0,.235-.265,1.67,1.67,0,0,0,.155-.335,2,2,0,0,0,.085-.37,2.771,2.771,0,0,0,.025-.371,2.67,2.67,0,0,0-.095-.7,2.028,2.028,0,0,0-.285-.626,1.575,1.575,0,0,0-.475-.45,1.249,1.249,0,0,0-.665-.175A1.749,1.749,0,0,0,68.935,139.781Zm-21.983,7.05a2.609,2.609,0,0,1-.85-.15,4.128,4.128,0,0,1-.85-.4,4.743,4.743,0,0,1-.775-.6,4.519,4.519,0,0,1-.634-.755,3.938,3.938,0,0,1-.43-.845,2.546,2.546,0,0,1-.16-.879,5.808,5.808,0,0,1,.19-1.561,3.122,3.122,0,0,1,.61-1.18,3.4,3.4,0,0,1,1.08-.835,6.557,6.557,0,0,1,1.6-.535,2.608,2.608,0,0,1,.3-.045c.1-.01.2-.015.294-.015a3.383,3.383,0,0,1,1.641.381,3.6,3.6,0,0,1,1.159.979,4.183,4.183,0,0,1,.686,1.346,5.1,5.1,0,0,1,.225,1.475,3.3,3.3,0,0,1-.27,1.37,3.269,3.269,0,0,1-.735,1.04,4.1,4.1,0,0,1-1.085.73,6.622,6.622,0,0,1-1.319.45l-.145.02c-.057.006-.117.012-.18.015s-.129,0-.2,0Zm-1.045-7a2.537,2.537,0,0,0-.87.67,2.971,2.971,0,0,0-.54.99,3.853,3.853,0,0,0-.185,1.205,4.491,4.491,0,0,0,.2,1.3,3.844,3.844,0,0,0,.574,1.17,3.062,3.062,0,0,0,.935.844,2.456,2.456,0,0,0,1.265.326,2.605,2.605,0,0,0,1.18-.256,2.531,2.531,0,0,0,.855-.685,3.02,3.02,0,0,0,.525-1.005,3.989,3.989,0,0,0,.18-1.2,4.548,4.548,0,0,0-.19-1.3,3.7,3.7,0,0,0-.565-1.156,3.039,3.039,0,0,0-.92-.83,2.429,2.429,0,0,0-1.255-.319A2.722,2.722,0,0,0,45.906,139.826Zm-21.268,7a2.61,2.61,0,0,1-.851-.15,4.121,4.121,0,0,1-.85-.4,4.667,4.667,0,0,1-.775-.6,4.482,4.482,0,0,1-.635-.755,3.979,3.979,0,0,1-.43-.845,2.566,2.566,0,0,1-.159-.879,5.808,5.808,0,0,1,.19-1.561,3.11,3.11,0,0,1,.61-1.18,3.4,3.4,0,0,1,1.08-.835,6.549,6.549,0,0,1,1.6-.535,2.639,2.639,0,0,1,.3-.045c.1-.01.2-.015.3-.015a3.379,3.379,0,0,1,1.64.381,3.606,3.606,0,0,1,1.16.979,4.181,4.181,0,0,1,.685,1.346,5.072,5.072,0,0,1,.225,1.475,3.3,3.3,0,0,1-.27,1.37,3.255,3.255,0,0,1-.735,1.04,4.1,4.1,0,0,1-1.085.73,6.611,6.611,0,0,1-1.32.45l-.145.02c-.057.006-.117.012-.18.015s-.128,0-.2,0Zm-1.045-7a2.528,2.528,0,0,0-.87.67,2.971,2.971,0,0,0-.54.99A3.853,3.853,0,0,0,22,142.691a4.522,4.522,0,0,0,.2,1.3,3.867,3.867,0,0,0,.575,1.17,3.051,3.051,0,0,0,.935.844,2.455,2.455,0,0,0,1.264.326,2.607,2.607,0,0,0,1.181-.256,2.54,2.54,0,0,0,.855-.685,3.037,3.037,0,0,0,.525-1.005,4.017,4.017,0,0,0,.18-1.2,4.548,4.548,0,0,0-.19-1.3,3.7,3.7,0,0,0-.565-1.156,3.06,3.06,0,0,0-.92-.83,2.435,2.435,0,0,0-1.256-.319A2.718,2.718,0,0,0,23.594,139.826ZM58.8,146.75a3.426,3.426,0,0,1-1.42-.415,3.832,3.832,0,0,1-1.1-.9,4.009,4.009,0,0,1-.7-1.235,4.254,4.254,0,0,1-.245-1.43,3.643,3.643,0,0,1,.325-1.575,3.367,3.367,0,0,1,.88-1.15,3.767,3.767,0,0,1,1.3-.7,5.234,5.234,0,0,1,1.585-.235,8.285,8.285,0,0,1,.9.05q.455.05.886.11c.133.02.261.04.384.06s.252.036.385.049a.106.106,0,0,1,.08.031.086.086,0,0,1,.03.059v.13c0,.106,0,.245-.01.415s-.02.337-.04.5a2.872,2.872,0,0,1-.085.44q-.054.2-.135.235a.179.179,0,0,1-.11.005.081.081,0,0,1-.06-.065,1.8,1.8,0,0,0-.27-.72,1.769,1.769,0,0,0-.49-.495,2.044,2.044,0,0,0-.65-.285,3.072,3.072,0,0,0-.751-.09,3.454,3.454,0,0,0-1.245.221,2.957,2.957,0,0,0-1,.625,2.873,2.873,0,0,0-.665.97,3.145,3.145,0,0,0-.24,1.245,3.307,3.307,0,0,0,.131.92,4.327,4.327,0,0,0,.355.865,3.966,3.966,0,0,0,.54.765,4.04,4.04,0,0,0,.685.61,1.774,1.774,0,0,0,.4.205,3.612,3.612,0,0,0,.465.14,4.877,4.877,0,0,0,.485.085,3.715,3.715,0,0,0,.445.03,2.975,2.975,0,0,0,.61-.065,1.049,1.049,0,0,0,.54-.3v-2.21a.305.305,0,0,0-.125-.28,1.269,1.269,0,0,0-.265-.131l-.19-.055a.788.788,0,0,1-.18-.075c-.054-.027-.072-.062-.055-.105a.108.108,0,0,1,.114-.065q.59,0,1.175.01t1.175.04l.011.17a1.467,1.467,0,0,0-.225.055.867.867,0,0,0-.191.09.4.4,0,0,0-.135.146.466.466,0,0,0-.049.229v2.49a.072.072,0,0,1-.05.07,2.055,2.055,0,0,1-.525.284,3.837,3.837,0,0,1-.595.166,4.416,4.416,0,0,1-.62.075c-.207.01-.4.015-.59.015C59.383,146.781,59.09,146.77,58.8,146.75Zm24.783-.059a.158.158,0,0,1-.111-.05c-.02-.027-.01-.057.031-.09l.35-.18q-.24-.63-.485-1.26t-.475-1.26h-1.97c-.053.12-.121.3-.205.525s-.165.467-.245.71-.148.473-.205.69a2.129,2.129,0,0,0-.085.454.217.217,0,0,0,.155.225,1.511,1.511,0,0,0,.305.076q.1.02.094.094c0,.05-.038.076-.1.076l-2.08-.01-.021-.021a.162.162,0,0,1-.03-.04.066.066,0,0,1,.02-.08.064.064,0,0,1,.066-.025l.055.005a.488.488,0,0,0,.255-.076,1.25,1.25,0,0,0,.24-.19,1.429,1.429,0,0,0,.2-.249,1.732,1.732,0,0,0,.135-.256q.259-.66.495-1.355t.475-1.355q.35-.969.71-1.93t.73-1.931a.177.177,0,0,1,.069-.07.063.063,0,0,1,.09.021,1.8,1.8,0,0,1,.311.55c.094.239.176.464.25.67a.4.4,0,0,1,.055.121.492.492,0,0,0,.035.1c.08.213.168.429.265.65s.188.446.275.68l.374,1q.2.52.4,1.049T84.442,145q.215.5.425.955a.829.829,0,0,0,.4.41,1.492,1.492,0,0,0,.544.139v.18c-.193.014-.386.019-.58.015s-.391,0-.59,0c-.147,0-.323,0-.53.01-.067,0-.13,0-.19,0Q83.728,146.7,83.587,146.691Zm-2.1-4.576q-.185.575-.4,1.205H82.7l-.82-2.41Q81.675,141.541,81.491,142.115ZM34.75,146.691c-.067-.007-.1-.034-.11-.08s.023-.077.09-.09a2.07,2.07,0,0,0,.329-.085.354.354,0,0,0,.18-.135.5.5,0,0,0,.076-.229c.01-.094.014-.221.014-.381v-5.829H33.78a.728.728,0,0,0-.51.2,1.477,1.477,0,0,0-.339.465.108.108,0,0,1-.115.055.1.1,0,0,1-.105-.075.717.717,0,0,1-.014-.075.577.577,0,0,1-.005-.085,1.461,1.461,0,0,1,.06-.4q.059-.215.13-.435a1.334,1.334,0,0,0,.045-.17c.01-.053.022-.107.035-.16a.107.107,0,0,1,.075-.065.162.162,0,0,1,.105.005.7.7,0,0,0,.17.075q.109.035.235.065a2.328,2.328,0,0,0,.24.045,1.5,1.5,0,0,0,.175.015h4.28a.67.67,0,0,0,.155-.025l.175-.045a.4.4,0,0,1,.115-.025,1.146,1.146,0,0,0,.115-.014.148.148,0,0,1,.095.01.069.069,0,0,1,.045.069v.221q0,.279-.024.555a3.988,3.988,0,0,1-.085.535c-.014.047-.053.07-.12.07a.1.1,0,0,1-.11-.07.8.8,0,0,0-.385-.61,1.565,1.565,0,0,0-.715-.149c-.073,0-.139,0-.2,0s-.123.008-.19.015-.129.012-.205.014-.141.005-.194.005h-.17a1.118,1.118,0,0,1-.15-.01v5.68c0,.02.005.068.015.145s.02.155.03.235.022.154.035.221a.429.429,0,0,0,.03.11.4.4,0,0,0,.2.12c.067.014.13.023.19.031a1.866,1.866,0,0,1,.239.03.209.209,0,0,1,.15.12.069.069,0,0,1,0,.085.125.125,0,0,1-.1.035q-.61,0-1.215.01c-.131,0-.261,0-.391,0Q35.163,146.7,34.75,146.691Zm55.558-.021c-.067-.006-.1-.035-.105-.085s.029-.082.1-.1a1.71,1.71,0,0,0,.33-.09.4.4,0,0,0,.18-.139.49.49,0,0,0,.069-.24c.007-.1.01-.233.01-.4v-5.58a.7.7,0,0,0-.034-.24.322.322,0,0,0-.09-.135.3.3,0,0,0-.125-.06q-.07-.015-.14-.024c-.08-.014-.158-.029-.235-.045a.228.228,0,0,1-.165-.135.073.073,0,0,1,0-.09.129.129,0,0,1,.11-.04h.53c.106,0,.217,0,.329.01a2.238,2.238,0,0,0,.31,0c.1-.006.2-.01.3-.01h.81a8.231,8.231,0,0,1,.91.05,2.288,2.288,0,0,1,.8.229,1.446,1.446,0,0,1,.571.536,1.821,1.821,0,0,1,.22.965,2.385,2.385,0,0,1-.16.859,2.484,2.484,0,0,1-.45.755,2.284,2.284,0,0,1-.689.54,1.882,1.882,0,0,1-.87.205,2.043,2.043,0,0,1-.58-.08.079.079,0,0,1-.065-.055.194.194,0,0,1,0-.1.184.184,0,0,1,.04-.09.1.1,0,0,1,.08-.035.537.537,0,0,0,.1.01h.1a1.577,1.577,0,0,0,1.156-.41,1.532,1.532,0,0,0,.415-1.14,2.265,2.265,0,0,0-.1-.66,1.965,1.965,0,0,0-.291-.59,1.562,1.562,0,0,0-.464-.425,1.2,1.2,0,0,0-.626-.165,1.332,1.332,0,0,0-.329.04c-.107.027-.207.057-.3.09v5.75a1.251,1.251,0,0,0,.02.155c.014.076.029.158.045.245s.035.167.056.24a.373.373,0,0,0,.049.13.262.262,0,0,0,.15.066l.18.024c.093.007.173.015.239.025a.194.194,0,0,1,.15.125.065.065,0,0,1,0,.085.147.147,0,0,1-.105.034q-.6,0-1.205.011l-.3,0C90.921,146.694,90.615,146.687,90.308,146.67Zm-90.083,0c-.067-.006-.1-.035-.105-.085s.029-.082.1-.1a1.71,1.71,0,0,0,.33-.09.4.4,0,0,0,.18-.139.49.49,0,0,0,.069-.24c.007-.1.01-.233.01-.4v-5.58a.7.7,0,0,0-.034-.24.322.322,0,0,0-.09-.135.3.3,0,0,0-.125-.06q-.07-.015-.14-.024c-.08-.014-.158-.029-.235-.045a.228.228,0,0,1-.165-.135.073.073,0,0,1,0-.09.129.129,0,0,1,.11-.04h.53c.106,0,.217,0,.329.01a2.238,2.238,0,0,0,.31,0c.1-.006.2-.01.3-.01H2.4a8.231,8.231,0,0,1,.91.05,2.288,2.288,0,0,1,.8.229,1.446,1.446,0,0,1,.571.536,1.821,1.821,0,0,1,.22.965,2.385,2.385,0,0,1-.16.859,2.484,2.484,0,0,1-.45.755,2.284,2.284,0,0,1-.689.54,1.882,1.882,0,0,1-.87.205,2.043,2.043,0,0,1-.58-.08.079.079,0,0,1-.065-.055.194.194,0,0,1,0-.1.184.184,0,0,1,.04-.09.1.1,0,0,1,.08-.035.537.537,0,0,0,.1.01h.1a1.577,1.577,0,0,0,1.156-.41,1.532,1.532,0,0,0,.415-1.14,2.266,2.266,0,0,0-.1-.66,1.965,1.965,0,0,0-.291-.59,1.562,1.562,0,0,0-.464-.425,1.2,1.2,0,0,0-.625-.165,1.332,1.332,0,0,0-.329.04c-.107.027-.207.057-.3.09v5.75a1.25,1.25,0,0,0,.02.155c.013.076.029.158.045.245s.035.167.056.24a.373.373,0,0,0,.049.13.262.262,0,0,0,.15.066l.18.024c.093.007.173.015.239.025a.194.194,0,0,1,.15.125.065.065,0,0,1,0,.085.147.147,0,0,1-.105.034q-.6,0-1.205.011l-.3,0C.838,146.694.532,146.687.225,146.67Zm114.181.005a2.969,2.969,0,0,1-.526-.075l.07-.18a.335.335,0,0,0,.131.03.242.242,0,0,0,.17-.065.484.484,0,0,0,.11-.16.833.833,0,0,0,.055-.21,1.647,1.647,0,0,0,.015-.205v-2.03a1.544,1.544,0,0,0-.175-.56,8.86,8.86,0,0,0-.45-.84q-.275-.46-.61-.955t-.67-.911a8.949,8.949,0,0,0-.62-.7,1.284,1.284,0,0,0-.455-.336c-.059-.013-.088-.045-.085-.095s.039-.078.105-.085c.333-.026.665-.041.994-.045s.665,0,1.005,0a.107.107,0,0,1,.105.049.084.084,0,0,1-.025.1.6.6,0,0,1-.09.069,1.175,1.175,0,0,0-.09.08.136.136,0,0,0-.04.1,1.526,1.526,0,0,0,.18.426q.181.344.436.795t.53.92q.274.47.474.81c.047.074.074.117.08.13a.6.6,0,0,0,.05.069q.109-.239.245-.485t.265-.464c.033-.054.076-.117.125-.19s.1-.147.156-.221q.139-.2.3-.44c.106-.159.205-.318.3-.474a4.211,4.211,0,0,0,.22-.436.877.877,0,0,0,.085-.32.275.275,0,0,0-.066-.185.444.444,0,0,0-.155-.115c-.06-.014-.086-.043-.08-.09s.043-.073.11-.08c.154-.013.305-.023.455-.03s.3-.01.455-.01.331,0,.5.01.321.017.474.03l.031.17a1.611,1.611,0,0,0-.516.346,7.312,7.312,0,0,0-.64.665q-.335.389-.66.85t-.59.9a7.017,7.017,0,0,0-.425.81,1.611,1.611,0,0,0-.16.59v2.19a.554.554,0,0,0,.236.52,1.012,1.012,0,0,0,.585.12c.067-.006.1.018.11.075s-.023.088-.09.1l-.69.04q-.35.02-.7.021Q114.681,146.691,114.406,146.676Zm-8.887,0h-.24c-.094,0-.194,0-.3-.01a2.486,2.486,0,0,1-.3-.035.8.8,0,0,1-.22-.065c-.06-.026-.072-.065-.035-.115a.108.108,0,0,1,.135-.045.454.454,0,0,0,.16.04.212.212,0,0,0,.18-.1.9.9,0,0,0,.115-.24,1.411,1.411,0,0,0,.059-.285c.01-.1.015-.178.015-.245v-2.749h-3.98v2.72a2.515,2.515,0,0,0,.03.415.633.633,0,0,0,.115.285.513.513,0,0,0,.24.165.986.986,0,0,0,.4.035c.067-.007.1.02.11.08s-.023.093-.09.1q-.6.03-1.211.03c-.419,0-.833-.01-1.239-.03-.06-.007-.092-.035-.1-.086s.025-.081.085-.094a1.758,1.758,0,0,0,.34-.09.384.384,0,0,0,.18-.14.474.474,0,0,0,.07-.239c.006-.1.01-.234.01-.4v-5.539a.839.839,0,0,0-.035-.27.3.3,0,0,0-.094-.145.327.327,0,0,0-.135-.06c-.05-.01-.1-.019-.145-.025a1.04,1.04,0,0,1-.236-.04.213.213,0,0,1-.135-.13.07.07,0,0,1,.005-.09.134.134,0,0,1,.105-.04q.59,0,1.165.014t1.155.066c.06.006.089.038.086.094a.083.083,0,0,1-.1.085.716.716,0,0,0-.4.139.456.456,0,0,0-.175.391v2.3h3.97v-2.29a.875.875,0,0,0-.05-.305.275.275,0,0,0-.2-.176.342.342,0,0,0-.11-.02,2.152,2.152,0,0,1-.3-.04.187.187,0,0,1-.165-.16.064.064,0,0,1,.03-.07.148.148,0,0,1,.09-.03q.59,0,1.175.01t1.165.049c.06.007.092.035.1.085s-.025.082-.085.095a1.417,1.417,0,0,0-.429.146.423.423,0,0,0-.17.4v5.52a1.254,1.254,0,0,0,.02.175c.014.084.03.17.049.26a2.181,2.181,0,0,0,.07.245c.027.074.053.113.08.121a.164.164,0,0,0,.1.025.989.989,0,0,1,.125.014,2.109,2.109,0,0,1,.225.035.407.407,0,0,1,.2.115c.041.033.05.065.031.094a.123.123,0,0,1-.111.045Zm-90.083,0H15.2c-.094,0-.194,0-.3-.01a2.486,2.486,0,0,1-.3-.035.8.8,0,0,1-.22-.065c-.06-.026-.072-.065-.035-.115a.108.108,0,0,1,.135-.045.454.454,0,0,0,.16.04.212.212,0,0,0,.18-.1.9.9,0,0,0,.115-.24,1.411,1.411,0,0,0,.059-.285c.01-.1.015-.178.015-.245v-2.749h-3.98v2.72a2.516,2.516,0,0,0,.03.415.633.633,0,0,0,.115.285.513.513,0,0,0,.24.165.986.986,0,0,0,.4.035c.067-.007.1.02.11.08s-.023.093-.09.1q-.6.03-1.211.03c-.419,0-.833-.01-1.239-.03-.06-.007-.092-.035-.1-.086s.025-.081.085-.094a1.758,1.758,0,0,0,.34-.09.384.384,0,0,0,.18-.14.474.474,0,0,0,.07-.239c.006-.1.01-.234.01-.4v-5.539a.839.839,0,0,0-.035-.27.3.3,0,0,0-.095-.145.327.327,0,0,0-.135-.06c-.05-.01-.1-.019-.145-.025a1.04,1.04,0,0,1-.236-.04.213.213,0,0,1-.135-.13.07.07,0,0,1,.005-.09.134.134,0,0,1,.105-.04q.59,0,1.165.014t1.155.066c.06.006.089.038.085.094a.083.083,0,0,1-.1.085.716.716,0,0,0-.405.139.456.456,0,0,0-.175.391v2.3h3.97v-2.29a.875.875,0,0,0-.05-.305.275.275,0,0,0-.2-.176.342.342,0,0,0-.11-.02,2.152,2.152,0,0,1-.3-.04.187.187,0,0,1-.165-.16.064.064,0,0,1,.03-.07.148.148,0,0,1,.09-.03q.59,0,1.175.01t1.165.049c.06.007.092.035.1.085s-.025.082-.086.095a1.417,1.417,0,0,0-.429.146.423.423,0,0,0-.17.4v5.52a1.253,1.253,0,0,0,.02.175c.014.084.03.17.049.26a2.18,2.18,0,0,0,.07.245c.027.074.053.113.08.121a.164.164,0,0,0,.1.025.969.969,0,0,1,.125.014,2.108,2.108,0,0,1,.225.035.407.407,0,0,1,.2.115c.041.033.05.065.031.094a.123.123,0,0,1-.111.045ZM97.88,121.206c0-5.508,4.374-9.585,10.233-9.585s10.233,4.1,10.233,9.585c0,5.535-4.374,9.693-10.233,9.693S97.88,126.741,97.88,121.206Zm5.076.027a5.34,5.34,0,0,0,5.211,5.454,5.431,5.431,0,1,0-5.211-5.454Zm-12.474,9.45V123.42H82.84v7.263H77.9V111.756H82.84v7.722h7.641v-7.722h4.941v18.927Zm-37.017,0V111.756H68.4V115.7h-9.99v3.537h9.018v3.942H58.406v3.564h10.26v3.942Zm-7.938,0-4.914-7.317-2.43,2.7v4.617H33.242V111.756h4.941v7.938l7.1-7.938h5.724l-7.02,7.83,7.452,11.1Zm-20.9,0V111.756h4.941v18.927Zm-8.046,0-.027-11.988-4.4,10.1H8.915l-4.4-10.1v11.988H.113V111.756h5.4L10.535,122.8l5.022-11.043h5.4v18.927ZM37.245,75.8A42.5,42.5,0,1,1,63.656,85,42.112,42.112,0,0,1,37.245,75.8Zm23.576-1.317v5.006q1.415.111,2.835.113,1.419-.018,2.834-.142V44.491H96.478a32.97,32.97,0,0,1-3.613,12.4v8.942a37.851,37.851,0,0,0,0-48.375V26.4a32.969,32.969,0,0,1,3.626,12.421h-30V13.709l-3.917,3.917-.007-.007L52.489,27.7V10.178l-.021-.01V5.4h0A37.946,37.946,0,0,0,25.709,41.656h4.978A32.969,32.969,0,0,1,46.82,13.406V41.382l7.5-7.5,6.5-6.5Z" transform="translate(41.844 891)"/>
</svg>
