<svg xmlns="http://www.w3.org/2000/svg" viewBox="686 951 14 13.378">
  <defs>
    <style>
      .cls-1 {
        fill: #fff;
      }
    </style>
  </defs>
  <g id="linkedin-logo" transform="translate(686 941.442)">
    <path id="LinkedIn" class="cls-1" d="M14,17.76v5.176H11V18.107c0-1.213-.434-2.041-1.52-2.041a1.642,1.642,0,0,0-1.54,1.1,2.053,2.053,0,0,0-.1.732v5.041h-3s.04-8.179,0-9.027h3v1.279l-.02.029h.02v-.029a2.98,2.98,0,0,1,2.7-1.492C12.52,13.7,14,14.987,14,17.76ZM1.7,9.558a1.564,1.564,0,1,0-.04,3.12h.02a1.565,1.565,0,1,0,.02-3.12ZM.178,22.936h3V13.909h-3Z"/>
  </g>
</svg>
